<?xml version="1.0" standalone="no"?>
<!DOCTYPE svg PUBLIC "-//W3C//DTD SVG 20010904//EN"
 "http://www.w3.org/TR/2001/REC-SVG-20010904/DTD/svg10.dtd">
<svg version="1.0" xmlns="http://www.w3.org/2000/svg"
 width="512.000000pt" height="512.000000pt" viewBox="0 0 512.000000 512.000000"
 preserveAspectRatio="xMidYMid meet">

<g transform="translate(0.000000,512.000000) scale(0.100000,-0.100000)"
fill="#FFFFFF" stroke="none">
<path d="M2405 5103 c-236 -50 -450 -228 -539 -449 -176 -433 87 -923 546
-1018 246 -51 499 26 677 207 138 140 205 289 218 487 27 425 -325 794 -754
789 -43 0 -109 -7 -148 -16z"/>
<path d="M752 4480 c-109 -29 -187 -74 -272 -160 -87 -86 -131 -163 -160 -276
-25 -98 -25 -190 0 -288 29 -113 73 -190 160 -276 85 -86 163 -131 272 -160
40 -10 71 -19 68 -20 -3 0 -46 -9 -95 -19 -339 -70 -603 -318 -697 -656 -21
-76 -22 -102 -26 -542 -3 -451 -3 -462 17 -502 31 -60 67 -75 191 -81 l105 -5
67 -685 c76 -762 74 -752 147 -790 38 -19 58 -20 371 -20 313 0 333 1 371 20
72 37 72 40 134 665 33 329 52 561 46 563 -5 2 -30 17 -55 34 -85 56 -153 155
-182 263 -20 75 -20 1052 1 1185 18 124 57 255 105 358 l39 82 -32 17 c-93 50
-251 103 -306 103 -53 0 -40 14 29 31 107 27 185 73 270 159 87 86 131 163
160 276 36 141 18 294 -52 427 -42 81 -164 203 -245 245 -132 69 -291 88 -431
52z"/>
<path d="M4072 4480 c-109 -29 -187 -74 -272 -160 -87 -86 -131 -163 -160
-276 -25 -98 -25 -190 0 -288 29 -113 73 -190 160 -276 85 -86 163 -132 270
-159 69 -17 82 -31 29 -31 -44 0 -195 -48 -269 -85 l-69 -35 39 -82 c48 -103
87 -234 105 -358 21 -133 21 -1110 1 -1185 -29 -108 -97 -207 -182 -263 -25
-17 -50 -32 -55 -34 -6 -2 13 -234 46 -563 62 -625 62 -628 134 -665 38 -19
58 -20 371 -20 313 0 333 1 371 20 73 38 71 28 147 790 l67 685 105 5 c124 6
160 21 191 81 20 40 20 51 17 502 -4 440 -5 466 -26 542 -74 265 -248 474
-495 591 -74 35 -210 74 -257 74 -52 0 -39 14 30 31 107 27 185 73 270 159 87
86 131 163 160 276 36 141 18 294 -52 427 -42 81 -164 203 -245 245 -132 69
-291 88 -431 52z"/>
<path d="M2272 3574 c-287 -84 -521 -279 -651 -540 -49 -99 -86 -217 -100
-318 -7 -47 -11 -273 -11 -577 0 -481 1 -501 20 -539 36 -71 69 -80 283 -80
l183 0 58 -702 c65 -781 61 -760 136 -798 37 -19 58 -20 370 -20 312 0 333 1
370 20 75 38 71 18 136 798 l58 702 183 0 c214 0 247 9 283 80 19 38 20 58 20
539 0 530 -4 600 -47 736 -106 341 -371 599 -718 700 -48 14 -98 25 -111 25
l-24 0 0 -530 c0 -512 -1 -532 -20 -570 -23 -45 -80 -80 -131 -80 -46 0 -108
39 -130 82 -18 35 -19 67 -19 568 l0 530 -27 -1 c-16 0 -65 -11 -111 -25z"/>
</g>
</svg>
