<svg width="242" height="102" viewBox="0 0 242 102" fill="none" xmlns="http://www.w3.org/2000/svg">
<path d="M25.0149 49.5722H31.0149V81.2522H25.0149V49.5722ZM49.583 60.9722C50.927 60.9722 52.239 61.2522 53.519 61.8122C54.799 62.3562 55.847 63.2282 56.663 64.4282C57.495 65.6282 57.911 67.1962 57.911 69.1322V81.2522H51.791V70.1882C51.791 68.5722 51.407 67.3722 50.639 66.5882C49.887 65.8042 48.895 65.4122 47.663 65.4122C46.863 65.4122 46.095 65.6362 45.359 66.0842C44.639 66.5162 44.047 67.1242 43.583 67.9082C43.135 68.6762 42.911 69.5562 42.911 70.5482V81.2522H36.815V61.5482H42.911V64.6922C43.087 64.1482 43.487 63.5882 44.111 63.0122C44.735 62.4362 45.527 61.9562 46.487 61.5722C47.447 61.1722 48.479 60.9722 49.583 60.9722ZM61.0156 61.5482H64.5676V56.1962C64.5676 54.2442 64.9516 52.6442 65.7196 51.3962C66.4876 50.1322 67.4796 49.1962 68.6956 48.5882C69.9116 47.9642 71.1676 47.6522 72.4636 47.6522C74.0476 47.6522 75.2636 47.8682 76.1116 48.3002C76.9596 48.7322 77.4796 49.0442 77.6716 49.2362L75.3196 53.7482C75.2396 53.6362 75.0156 53.4602 74.6476 53.2202C74.2956 52.9642 73.8236 52.8362 73.2316 52.8362C72.8156 52.8362 72.4076 52.9402 72.0076 53.1482C71.6076 53.3562 71.2796 53.7402 71.0236 54.3002C70.7676 54.8602 70.6396 55.6842 70.6396 56.7722V61.5482H75.7996V66.6122H70.6396V81.2522H64.5676V66.6122H61.0156V61.5482ZM85.2796 81.2522H79.1596V48.2282H85.2796V81.2522ZM96.2045 70.9802C96.2045 72.7402 96.5565 74.1482 97.2605 75.2042C97.9645 76.2442 99.1005 76.7642 100.669 76.7642C102.253 76.7642 103.397 76.2442 104.101 75.2042C104.805 74.1482 105.157 72.7402 105.157 70.9802V61.5482H111.157V71.6762C111.157 73.7082 110.749 75.4922 109.933 77.0282C109.117 78.5482 107.925 79.7322 106.357 80.5802C104.805 81.4122 102.909 81.8282 100.669 81.8282C98.4445 81.8282 96.5485 81.4122 94.9805 80.5802C93.4285 79.7322 92.2445 78.5482 91.4285 77.0282C90.6125 75.4922 90.2045 73.7082 90.2045 71.6762V61.5482H96.2045V70.9802ZM116.229 49.5722H122.229V75.9482H134.109V81.2522H116.229V49.5722ZM148.679 81.8282C146.583 81.8282 144.711 81.3802 143.063 80.4842C141.431 79.5882 140.151 78.3642 139.223 76.8122C138.295 75.2442 137.831 73.4602 137.831 71.4602C137.831 69.4602 138.295 67.6762 139.223 66.1082C140.151 64.5242 141.431 63.2762 143.063 62.3642C144.711 61.4362 146.583 60.9722 148.679 60.9722C150.791 60.9722 152.655 61.4362 154.271 62.3642C155.887 63.2762 157.151 64.5242 158.063 66.1082C158.975 67.6762 159.431 69.4602 159.431 71.4602C159.431 73.4602 158.975 75.2442 158.063 76.8122C157.151 78.3642 155.887 79.5882 154.271 80.4842C152.655 81.3802 150.791 81.8282 148.679 81.8282ZM148.679 76.7642C149.687 76.7642 150.559 76.5402 151.295 76.0922C152.047 75.6282 152.623 74.9962 153.023 74.1962C153.439 73.3802 153.647 72.4602 153.647 71.4362C153.647 70.4122 153.439 69.4922 153.023 68.6762C152.623 67.8602 152.047 67.2202 151.295 66.7562C150.559 66.2762 149.687 66.0362 148.679 66.0362C147.671 66.0362 146.791 66.2762 146.039 66.7562C145.303 67.2202 144.727 67.8602 144.311 68.6762C143.895 69.4922 143.687 70.4122 143.687 71.4362C143.687 72.4602 143.895 73.3802 144.311 74.1962C144.727 74.9962 145.303 75.6282 146.039 76.0922C146.791 76.5402 147.671 76.7642 148.679 76.7642ZM173.675 76.9802C174.715 76.9802 175.563 76.8042 176.219 76.4522C176.875 76.1002 177.307 75.8362 177.515 75.6602L180.347 79.8602C180.123 80.0362 179.707 80.2842 179.099 80.6042C178.491 80.9242 177.715 81.2042 176.771 81.4442C175.843 81.7002 174.779 81.8282 173.579 81.8282C171.499 81.8282 169.635 81.4122 167.987 80.5802C166.339 79.7322 165.035 78.5322 164.075 76.9802C163.131 75.4122 162.659 73.5482 162.659 71.3882C162.659 69.2122 163.131 67.3482 164.075 65.7962C165.035 64.2442 166.339 63.0522 167.987 62.2202C169.635 61.3882 171.499 60.9722 173.579 60.9722C174.763 60.9722 175.811 61.1002 176.723 61.3562C177.651 61.6122 178.427 61.9082 179.051 62.2442C179.675 62.5642 180.107 62.8282 180.347 63.0362L177.443 67.2602C177.331 67.1322 177.115 66.9562 176.795 66.7322C176.475 66.5082 176.051 66.3002 175.523 66.1082C175.011 65.9162 174.395 65.8202 173.675 65.8202C172.795 65.8202 171.955 66.0522 171.155 66.5162C170.371 66.9802 169.731 67.6282 169.235 68.4602C168.739 69.2922 168.491 70.2682 168.491 71.3882C168.491 72.5082 168.739 73.4922 169.235 74.3402C169.731 75.1722 170.371 75.8202 171.155 76.2842C171.955 76.7482 172.795 76.9802 173.675 76.9802ZM199.277 81.2522V77.8202C199.133 78.1722 198.765 78.6682 198.173 79.3082C197.581 79.9482 196.781 80.5322 195.773 81.0602C194.781 81.5722 193.613 81.8282 192.269 81.8282C190.381 81.8282 188.709 81.3802 187.253 80.4842C185.797 79.5722 184.653 78.3322 183.821 76.7642C183.005 75.1802 182.597 73.3962 182.597 71.4122C182.597 69.4282 183.005 67.6522 183.821 66.0842C184.653 64.5002 185.797 63.2522 187.253 62.3402C188.709 61.4282 190.381 60.9722 192.269 60.9722C193.581 60.9722 194.717 61.1962 195.677 61.6442C196.653 62.0762 197.437 62.5882 198.029 63.1802C198.637 63.7562 199.029 64.2762 199.205 64.7402V61.5482H205.253V81.2522H199.277ZM188.573 71.4122C188.573 72.5162 188.821 73.4922 189.317 74.3402C189.813 75.1722 190.469 75.8202 191.285 76.2842C192.101 76.7482 192.989 76.9802 193.949 76.9802C194.957 76.9802 195.853 76.7482 196.637 76.2842C197.421 75.8042 198.037 75.1482 198.485 74.3162C198.949 73.4682 199.181 72.5002 199.181 71.4122C199.181 70.3242 198.949 69.3642 198.485 68.5322C198.037 67.6842 197.421 67.0202 196.637 66.5402C195.853 66.0602 194.957 65.8202 193.949 65.8202C192.989 65.8202 192.101 66.0602 191.285 66.5402C190.469 67.0042 189.813 67.6602 189.317 68.5082C188.821 69.3402 188.573 70.3082 188.573 71.4122ZM216.425 81.2522H210.305V48.2282H216.425V81.2522Z" fill="white"/>
<path d="M150.037 25.1794C151.399 24.4557 153.036 25.4533 152.99 26.9793L152.313 49.3857C152.267 50.9188 150.559 51.8347 149.242 51.0322L129.91 39.2509C128.593 38.4485 128.659 36.5314 130.028 35.8045L150.037 25.1794Z" fill="#7CE6D7"/>
<path d="M171.666 33.113C171.876 31.6018 173.651 30.8881 174.872 31.8233L193.907 46.3955C195.138 47.3376 194.885 49.2435 193.453 49.8196L171.143 58.7954C169.711 59.3714 168.179 58.1834 168.391 56.6611L171.666 33.113Z" fill="#E684C3"/>
<path d="M155.156 13.7009C154.913 12.1919 156.413 10.9918 157.859 11.5384L178.184 19.2184C179.634 19.7661 179.942 21.6563 178.739 22.6187L161.834 36.1426C160.631 37.1051 158.82 36.417 158.576 34.9048L155.156 13.7009Z" fill="#FFD24C"/>
</svg>
